<svg width="32" height="32" viewBox="0 0 32 32" fill="none" xmlns="http://www.w3.org/2000/svg">
<path d="M31.2855 0.714616C30.3327 -0.238205 28.788 -0.238205 27.8352 0.714616L21.1073 7.44248L16.0469 7.67259L24.3277 15.9534L24.5578 10.893L31.2857 4.16511C32.2385 3.21229 32.2385 1.66766 31.2857 0.714838L31.2855 0.714616Z" fill="white"/>
<path d="M20.935 24.7244C20.935 27.529 18.6613 29.8028 15.8567 29.8028C13.0521 29.8028 10.7783 27.5291 10.7783 24.7244C10.7783 21.9198 13.052 19.6461 15.8567 19.6461C18.6613 19.6461 20.935 21.9198 20.935 24.7244Z" fill="white"/>
<path d="M9.63502 24.7245C9.63502 21.2936 12.4263 18.503 15.8572 18.503C17.4963 18.503 18.9845 19.1446 20.0968 20.1841L21.3947 18.8861L13.1139 10.6053L0.648199 23.071C-0.216066 23.9355 -0.216066 25.337 0.648199 26.2016L5.7982 31.3516C6.66272 32.2162 8.06427 32.2162 8.92886 31.3516L11.3164 28.9641C10.2771 27.8519 9.63502 26.3633 9.63502 24.7243V24.7245Z" fill="white"/>
</svg>
