<svg width="28" height="28" viewBox="0 0 28 28" fill="none" xmlns="http://www.w3.org/2000/svg">
<path d="M16.1539 14C16.1539 15.1895 15.1895 16.1539 14 16.1539C12.8106 16.1539 11.8462 15.1895 11.8462 14C11.8462 12.8106 12.8106 11.8462 14 11.8462C15.1895 11.8462 16.1539 12.8106 16.1539 14Z" fill="white"/>
<path d="M14 0C6.24615 0 0 6.24615 0 14C0 21.7538 6.24615 28 14 28C21.7538 28 28 21.7538 28 14C28 6.24615 21.7538 0 14 0ZM6.46154 7.53846C6.46154 6.89231 6.89231 6.46154 7.53846 6.46154C8.18462 6.46154 8.61539 6.89231 8.61539 7.53846C8.61539 8.18462 8.18462 8.61539 7.53846 8.61539C6.89231 8.61539 6.46154 8.18462 6.46154 7.53846ZM14.1077 19.4923L8.18462 21.1077C7.43077 21.3231 6.67692 20.5692 6.89231 19.8154L8.50769 13.8923C9.26154 11.3077 11.2 9.26154 13.7846 8.61539L19.7077 7C20.4615 6.78462 21.2154 7.53846 21 8.29231L19.3846 14.2154C18.7385 16.6923 16.6923 18.7385 14.1077 19.4923ZM20.4615 21.5385C19.8154 21.5385 19.3846 21.1077 19.3846 20.4615C19.3846 19.8154 19.8154 19.3846 20.4615 19.3846C21.1077 19.3846 21.5385 19.8154 21.5385 20.4615C21.5385 21.1077 21.1077 21.5385 20.4615 21.5385Z" fill="white"/>
</svg>
