<svg width="40" height="40" viewBox="0 0 40 40" fill="none" xmlns="http://www.w3.org/2000/svg">
<path fill-rule="evenodd" clip-rule="evenodd" d="M20 40C26.5168 40 32.3057 36.8831 35.9571 32.0588H4.04289C7.69434 36.8831 13.4832 40 20 40ZM1.63859 27.9412H38.3614C38.8883 26.7246 39.2978 25.4453 39.5757 24.1176H24.1176C21.8435 24.1176 20 22.2741 20 20C20 17.7259 21.8435 15.8824 24.1176 15.8824H39.5757C39.2978 14.5547 38.8883 13.2754 38.3614 12.0588H1.63859C0.584331 14.4931 0 17.1783 0 20C0 22.8217 0.584331 25.5069 1.63859 27.9412ZM4.04289 7.94118C7.69434 3.11686 13.4832 0 20 0C26.5168 0 32.3057 3.11686 35.9571 7.94118H4.04289Z" fill="white"/>
</svg>
