<svg width="61" height="62" viewBox="0 0 61 62" fill="none" xmlns="http://www.w3.org/2000/svg">
<path fill-rule="evenodd" clip-rule="evenodd" d="M30.827 61.654C40.8717 61.654 49.7944 56.8498 55.4225 49.4139H6.2315C11.8597 56.8498 20.7823 61.654 30.827 61.654ZM2.52563 43.0671H59.1284C59.9405 41.1919 60.5717 39.2201 61 37.1738H37.1738C33.6686 37.1738 30.8271 34.3322 30.8271 30.827C30.8271 27.3218 33.6686 24.4803 37.1738 24.4803H61C60.5717 22.4339 59.9405 20.4621 59.1284 18.5869H2.52564C0.900659 22.339 0 26.4778 0 30.827C0 35.1762 0.900657 39.315 2.52563 43.0671ZM6.23151 12.2401C11.8597 4.80418 20.7823 0 30.827 0C40.8717 0 49.7944 4.80418 55.4225 12.2401H6.23151Z" fill="#7267CB"/>
</svg>
