<svg width="446" height="523" viewBox="0 0 446 523" fill="none" xmlns="http://www.w3.org/2000/svg">
<path d="M197.12 497.287V447.26C85.8653 435.312 0.746667 341.234 0 229.234C0 215.046 11.1979 203.848 25.3853 204.594C39.5733 204.594 50.7707 215.791 50.7707 229.234C52.2655 324.062 129.916 399.474 224.744 398.727C317.332 397.232 392.744 322.566 394.237 229.234C394.237 215.046 405.435 203.848 419.623 203.848C433.81 203.848 445.008 215.046 445.008 229.234C444.263 341.234 359.888 435.314 247.888 447.26V497.287C247.888 511.475 236.69 522.672 222.503 522.672C208.315 522.672 197.117 511.474 197.117 497.287H197.12ZM218.027 344.967C155.308 345.712 104.532 294.94 104.532 232.967V112.008C104.532 49.2896 156.053 -0.737112 218.027 0.00822125H226.985C277.756 0.00822125 322.558 32.8629 336.745 82.1442C338.24 87.3734 335.25 93.3421 330.026 94.8369C329.282 94.8369 328.531 95.5817 327.042 95.5817H297.178C288.219 95.5817 280.751 103.05 280.751 111.264C280.751 120.223 288.22 126.947 297.178 126.947H324.803C333.762 126.947 341.23 134.416 341.23 143.374C341.23 152.332 333.761 159.8 324.803 159.8L297.173 159.795C288.214 159.795 281.49 167.264 281.49 175.478C281.49 184.436 288.959 191.161 297.173 191.161H324.798C333.756 191.161 341.225 198.629 341.225 207.587C341.225 216.545 333.756 224.014 324.798 224.014L297.173 224.009C288.214 224.009 281.49 231.477 281.49 239.691C281.49 248.65 288.959 255.374 297.173 255.374H325.547C330.776 255.374 336 259.853 336 265.082C336 265.827 336 267.322 335.256 268.067C319.573 314.359 276.271 344.973 226.99 344.973L218.027 344.967Z" fill="white"/>
</svg>
