<svg width="31" height="31" viewBox="0 0 31 31" fill="none" xmlns="http://www.w3.org/2000/svg">
<path d="M15.0577 1.16232L15.0768 1.163L15.0958 1.16306C15.7136 1.1648 16.2941 1.26722 16.7905 1.48545C18.5346 2.4531 20.2618 3.4343 21.9948 4.41885C23.0724 5.03103 24.1523 5.64452 25.2399 6.25684L25.2812 6.28006L25.3242 6.29984C26.771 6.965 27.8186 8.27383 27.9788 9.71616C27.9967 11.6801 27.9939 13.636 27.9912 15.5989C27.9895 16.8208 27.9878 18.0454 27.9911 19.2764L27.9912 19.3252L27.9954 19.3738C28.1298 20.9149 27.5082 22.4605 26.3007 23.3266C24.5738 24.3252 22.8435 25.3024 21.1071 26.2829C20.0295 26.8915 18.9495 27.5014 17.8666 28.1185L17.8254 28.1421L17.7862 28.1689C16.4785 29.0637 14.7828 29.3089 13.4039 28.7122C11.6614 27.7456 9.93637 26.7652 8.20529 25.7813C7.12716 25.1685 6.0467 24.5544 4.95824 23.9415L4.91705 23.9183L4.8741 23.8986C3.42705 23.2329 2.3794 21.9243 2.21941 20.4821C2.20155 18.5185 2.20426 16.5628 2.20698 14.6002C2.20867 13.378 2.21037 12.1531 2.20711 10.9218L2.20698 10.8744L2.20298 10.8272C2.07941 9.36898 2.61646 7.91597 3.70029 7.02201C5.05866 6.17675 6.42869 5.41194 7.82566 4.63209C8.68427 4.15278 9.55306 3.66778 10.4356 3.15493C10.8839 2.92557 11.3169 2.66763 11.7148 2.43041L11.7241 2.42492C12.1387 2.17777 12.5171 1.95218 12.8994 1.75509C13.6638 1.36111 14.3425 1.13673 15.0577 1.16232Z" stroke="white" stroke-width="2.31286"/>
<path d="M6.63281 18.2434H7.92727V14.0342H7.94489L10.5602 18.2434H11.9427V11.9561H10.6483V16.1741H10.6307L8.00653 11.9561H6.63281V18.2434Z" fill="white"/>
<path d="M13.4241 18.2434H14.8066V15.6457H17.4396V14.5714H14.8066V13.1184H17.8446V11.9561H13.4241V18.2434Z" fill="white"/>
<path d="M20.2993 18.2434H21.6818V13.1184H23.5662V11.9561H18.4148V13.1184H20.2993V18.2434Z" fill="white"/>
</svg>
